<svg width="40" height="16" viewBox="0 0 40 16" fill="none" xmlns="http://www.w3.org/2000/svg">
<path d="M13.7456 4.49268C14.1186 3.94954 14.7353 3.625 15.3942 3.625H37.2641C38.2964 3.625 39.0201 4.64339 38.6807 5.61824L36.3422 12.3346C36.0623 13.1384 35.3044 13.677 34.4534 13.677H7.43745L13.7456 4.49268Z" fill="url(#paint0_linear_15615_115621)"/>
<path d="M17.0253 11.6001C16.3701 11.6001 15.8689 11.4741 15.5217 11.2221C15.1801 10.9701 15.0093 10.5921 15.0093 10.0881C15.0093 10.0153 15.0149 9.93409 15.0261 9.84449C15.0373 9.74929 15.0569 9.63169 15.0849 9.49169H16.5213C16.4989 9.60369 16.4849 9.69329 16.4793 9.76049C16.4737 9.82769 16.4709 9.88089 16.4709 9.92009C16.4709 10.0937 16.5185 10.2225 16.6137 10.3065C16.7145 10.3849 16.8713 10.4241 17.0841 10.4241C17.3249 10.4241 17.5237 10.3485 17.6805 10.1973C17.8429 10.0461 17.9521 9.81369 18.0081 9.50009L18.6717 5.72852H20.1753L19.5117 9.53369C19.4277 10.0153 19.2737 10.4101 19.0497 10.7181C18.8313 11.0205 18.5513 11.2445 18.2097 11.3901C17.8681 11.5301 17.4733 11.6001 17.0253 11.6001Z" fill="url(#paint1_linear_15615_115621)"/>
<path d="M22.1147 11.4993L22.5179 9.21449L20.8715 5.72852H22.4927L23.4587 7.8957H23.5007L25.189 5.72852H26.8774L24.0214 9.21449L23.6183 11.4993H22.1147Z" fill="url(#paint2_linear_15615_115621)"/>
<path d="M26.5366 11.4993L26.7886 10.0965H28.2418L27.9898 11.4993H26.5366Z" fill="url(#paint3_linear_15615_115621)"/>
<path d="M29.8156 11.4993C29.894 11.0681 30.02 10.6453 30.1936 10.2309C30.3672 9.81649 30.5744 9.41609 30.8152 9.02969C31.056 8.6377 31.3192 8.2681 31.6048 7.9209C31.896 7.5681 32.1956 7.24051 32.5036 6.93811H29.7736L29.992 5.72852H34.5195L34.3935 6.45091C34.1471 6.70291 33.9007 6.96611 33.6543 7.24051C33.4135 7.5093 33.1812 7.7949 32.9572 8.0973C32.7332 8.3941 32.526 8.7021 32.3356 9.02129C32.1508 9.33489 31.9912 9.65969 31.8568 9.99569C31.7224 10.3317 31.6244 10.6789 31.5628 11.0373C31.546 11.1157 31.5292 11.1913 31.5124 11.2641C31.5012 11.3313 31.49 11.4097 31.4788 11.4993H29.8156Z" fill="url(#paint4_linear_15615_115621)"/>
<path d="M7.53862 3.69241V1L10.0515 2.61545L7.53862 3.69241Z" fill="url(#paint5_linear_15615_115621)"/>
<path d="M7.53862 3.69241V1L5.0257 2.61545L7.53862 3.69241Z" fill="url(#paint6_linear_15615_115621)"/>
<path d="M11.0567 3.1543L7.53862 4.76975V6.92368L12.5645 4.23126L11.0567 3.1543Z" fill="url(#paint7_linear_15615_115621)"/>
<path d="M4.02053 3.1543L7.53862 4.76975V6.92368L2.51278 4.23126L4.02053 3.1543Z" fill="url(#paint8_linear_15615_115621)"/>
<path d="M7.53876 8.00043L1.50775 4.76953L0 5.8465L7.53876 10.1544V8.00043Z" fill="url(#paint9_linear_15615_115621)"/>
<path d="M7.53848 8.00043L13.5695 4.76953L15.0772 5.8465L7.53848 10.1544V8.00043Z" fill="url(#paint10_linear_15615_115621)"/>
<path d="M7.53876 14.9999V10.1536L0 5.8457L7.53876 14.9999Z" fill="url(#paint11_linear_15615_115621)"/>
<path d="M7.53848 14.9999V10.1536L15.0772 5.8457L7.53848 14.9999Z" fill="url(#paint12_linear_15615_115621)"/>
<defs>
<linearGradient id="paint0_linear_15615_115621" x1="23.6245" y1="14.5624" x2="15.3121" y2="3.625" gradientUnits="userSpaceOnUse">
<stop stop-color="#8E5FC9"/>
<stop offset="0.291667" stop-color="#9F71DA"/>
<stop offset="1" stop-color="#C7A3F5"/>
</linearGradient>
<linearGradient id="paint1_linear_15615_115621" x1="14.8749" y1="8.87473" x2="34.9998" y2="8.87473" gradientUnits="userSpaceOnUse">
<stop stop-color="#F4EAFF"/>
<stop offset="1" stop-color="white"/>
</linearGradient>
<linearGradient id="paint2_linear_15615_115621" x1="14.8749" y1="8.87473" x2="34.9998" y2="8.87473" gradientUnits="userSpaceOnUse">
<stop stop-color="#F4EAFF"/>
<stop offset="1" stop-color="white"/>
</linearGradient>
<linearGradient id="paint3_linear_15615_115621" x1="14.8749" y1="8.87473" x2="34.9998" y2="8.87473" gradientUnits="userSpaceOnUse">
<stop stop-color="#F4EAFF"/>
<stop offset="1" stop-color="white"/>
</linearGradient>
<linearGradient id="paint4_linear_15615_115621" x1="14.8749" y1="8.87473" x2="34.9998" y2="8.87473" gradientUnits="userSpaceOnUse">
<stop stop-color="#F4EAFF"/>
<stop offset="1" stop-color="white"/>
</linearGradient>
<linearGradient id="paint5_linear_15615_115621" x1="7.16168" y1="3.26163" x2="9.2139" y2="1.83764" gradientUnits="userSpaceOnUse">
<stop stop-color="#7B38D0"/>
<stop offset="1" stop-color="#DAC4FF"/>
</linearGradient>
<linearGradient id="paint6_linear_15615_115621" x1="7.53862" y1="2.25646" x2="5.86334" y2="1.83764" gradientUnits="userSpaceOnUse">
<stop stop-color="#8B55D1"/>
<stop offset="1" stop-color="#DFCBFF"/>
</linearGradient>
<linearGradient id="paint7_linear_15615_115621" x1="7.53862" y1="5.60668" x2="11.7268" y2="3.51258" gradientUnits="userSpaceOnUse">
<stop stop-color="#7233C1"/>
<stop offset="1" stop-color="#CB98FF"/>
</linearGradient>
<linearGradient id="paint8_linear_15615_115621" x1="3.35042" y1="3.51258" x2="7.53862" y2="5.60668" gradientUnits="userSpaceOnUse">
<stop stop-color="#C8A6FF"/>
<stop offset="1" stop-color="#8E5EDC"/>
</linearGradient>
<linearGradient id="paint9_linear_15615_115621" x1="0.83764" y1="5.60717" x2="7.53876" y2="8.95773" gradientUnits="userSpaceOnUse">
<stop stop-color="#C394FF"/>
<stop offset="1" stop-color="#7A3FC5"/>
</linearGradient>
<linearGradient id="paint10_linear_15615_115621" x1="7.53848" y1="8.95773" x2="14.2396" y2="5.18835" gradientUnits="userSpaceOnUse">
<stop stop-color="#6522BB"/>
<stop offset="1" stop-color="#DDC8FF"/>
</linearGradient>
<linearGradient id="paint11_linear_15615_115621" x1="5.02584" y1="8.85311" x2="7.53876" y2="14.1931" gradientUnits="userSpaceOnUse">
<stop stop-color="#5B1C99"/>
<stop offset="1" stop-color="#D3B9FD"/>
</linearGradient>
<linearGradient id="paint12_linear_15615_115621" x1="10.4702" y1="11.4703" x2="8.66929" y2="9.66956" gradientUnits="userSpaceOnUse">
<stop stop-color="#D7BBFA"/>
<stop offset="1" stop-color="#662CB1"/>
</linearGradient>
</defs>
</svg>
